<?xml version="1.0" encoding="utf-8"?>
<!-- Generator: Adobe Illustrator 23.0.3, SVG Export Plug-In . SVG Version: 6.00 Build 0)  -->
<svg version="1.1" xmlns="http://www.w3.org/2000/svg" xmlns:xlink="http://www.w3.org/1999/xlink" x="0px" y="0px"
	 viewBox="0 0 24 24" style="enable-background:new 0 0 24 24;" xml:space="preserve">
<style type="text/css">
	.st0{fill:#333232;}
	.st1{fill:#FFFFFF;}
</style>
<g id="Layer_2">
	<rect x="0" y="0" class="st0" width="24" height="24"/>
</g>
<g id="Layer_1">
	<path class="st1" d="M17,9.2h-2.2V7.5c0-1.2-1-2.2-2.2-2.2s-2.2,1-2.2,2.2v1.7H8.1L7,18.7h11.2L17,9.2z M10.9,7.5
		c0-0.9,0.8-1.7,1.7-1.7s1.7,0.8,1.7,1.7v1.7h-3.4V7.5z M8.2,17.6l0.9-7.3h1.2v0.8c0,0.2,0.1,0.3,0.3,0.3c0.2,0,0.3-0.1,0.3-0.3
		v-0.8h3.4v0.8c0,0.2,0.1,0.3,0.3,0.3c0.2,0,0.3-0.1,0.3-0.3v-0.8H16l0.9,7.3C16.9,17.6,8.2,17.6,8.2,17.6z"/>
</g>
</svg>
