<?xml version="1.0" encoding="utf-8"?>
<!-- Generator: Adobe Illustrator 23.0.3, SVG Export Plug-In . SVG Version: 6.00 Build 0)  -->
<svg version="1.1" xmlns="http://www.w3.org/2000/svg" xmlns:xlink="http://www.w3.org/1999/xlink" x="0px" y="0px"
	 viewBox="0 0 24 24" style="enable-background:new 0 0 24 24;" xml:space="preserve">
<style type="text/css">
	.st0{fill:#333232;}
	.st1{fill:#FFFFFF;}
</style>
<g id="Layer_2">
	<rect class="st0" width="24" height="24"/>
</g>
<g id="Layer_1">
	<path class="st1" d="M8.5,15.9v1h-1v-1H8.5z M9.5,14.8H6.4v3.1h3.1V14.8z M12.6,14.3v2.6h-1v-2.6H12.6z M13.6,13.3h-3.1v4.6h3.1
		V13.3z M16.7,12.3v4.6h-1v-4.6H16.7z M17.7,11.2h-3.1v6.7h3.1V11.2z M17.7,5.6l-3.1,0.6l0.9,0.9L12,10.6L10.5,9l-4,4l0.7,0.7
		l3.3-3.3L12,12l4.2-4.2l0.9,0.9C17.1,8.7,17.7,5.6,17.7,5.6z"/>
</g>
</svg>
