<?xml version="1.0" encoding="utf-8"?>
<!-- Generator: Adobe Illustrator 23.0.3, SVG Export Plug-In . SVG Version: 6.00 Build 0)  -->
<svg version="1.1" xmlns="http://www.w3.org/2000/svg" xmlns:xlink="http://www.w3.org/1999/xlink" x="0px" y="0px"
	 viewBox="0 0 24 24" style="enable-background:new 0 0 24 24;" xml:space="preserve">
<style type="text/css">
	.st0{fill:#333232;}
	.st1{fill:#FFFFFF;}
</style>
<g id="Layer_2">
	<rect class="st0" width="24" height="24"/>
</g>
<g id="Layer_1">
	<path class="st1" d="M12.3,15.9l2.3,1.8H10L12.3,15.9z M15,10.9v0.9c0,1.5-1.2,2.7-2.7,2.7s-2.7-1.2-2.7-2.7v-0.9H8.7v0.9
		c0,2,1.6,3.6,3.6,3.6s3.6-1.6,3.6-3.6v-0.9H15z M10.5,11.8V8.7c0-1,0.8-1.8,1.8-1.8s1.8,0.8,1.8,1.8v3.2c0,1-0.8,1.8-1.8,1.8
		S10.5,12.8,10.5,11.8z M11.4,8.7v1.8h1.8V8.7c0-0.5-0.4-0.9-0.9-0.9C11.8,7.8,11.4,8.2,11.4,8.7z"/>
</g>
</svg>
